# xmcd
#
# Track frame offsets: 
#        150
#        10875
#        35913
#        50399
#        63223
#        82283
#        96811
#        106620
#        119349
#        135017
#
# Disc length: 1982 seconds
#
# Revision: 3
# Processed by: cddbd v1.5.2PL0 Copyright (c) Steve Scherf et al.
# Submitted via: ExactAudioCopy v1.3
#
DISCID=7907bc0a
DTITLE=Townes van Zandt - In the Beginning
DYEAR=2003
DGENRE=Folk
TTITLE0=Black Widow Blues
TTITLE1=Maryetta's Song
TTITLE2=Hunger Child Blues
TTITLE3=Gypsy Friday
TTITLE4=Waitin' For the Day
TTITLE5=Black Jack Mama
TTITLE6=When Your Dream Lovers Die
TTITLE7=Colorado Bound
TTITLE8=Big Country Blues
TTITLE9=Black Crow Blues
EXTD=
EXTT0=
EXTT1=
EXTT2=
EXTT3=
EXTT4=
EXTT5=
EXTT6=
EXTT7=
EXTT8=
EXTT9=
PLAYORDER=
